<svg width="67" height="67" viewBox="0 0 67 67" fill="none" xmlns="http://www.w3.org/2000/svg">
<path d="M0 33.5C0 51.9381 15.0488 67 33.5 67C51.9512 67 67 51.9512 67 33.5C67 15.0488 51.9512 0 33.5 0C15.075 0 0 15.0357 0 33.5ZM3.92578 33.5C3.92578 27.6244 5.64004 22.1545 8.61055 17.5482L12.34 18.4512C12.9943 18.6213 13.5309 19.0662 13.7926 19.6812C14.0674 20.2963 14.0281 20.9898 13.701 21.5918C12.2746 24.1828 13.1383 27.5197 15.6508 29.1816L24.1305 34.8348L26.0803 38.7344C26.7477 40.0561 26.4859 41.6656 25.4391 42.7125L24.2744 43.8771C23.5023 44.6492 23.5023 45.8924 24.2744 46.6514L26.6168 48.9937C27.2711 49.648 27.6244 50.5117 27.6244 51.4277C27.6244 55.4189 28.5273 59.3709 30.2547 62.8779C15.4545 61.2684 3.92578 48.7059 3.92578 33.5ZM29.5873 36.9939L28.8283 35.4629H29.1162C31.0791 35.4629 32.8326 36.549 33.7094 38.3025C35.2535 41.3908 38.3549 43.3145 41.8227 43.3145H43.3145V45.2773C43.3145 46.8607 42.6863 48.3525 41.5609 49.4648C37.9361 53.0373 35.2273 56.6229 33.3561 60.3C32.1783 57.565 31.5371 54.4637 31.5371 51.4408C31.5371 49.4779 30.765 47.6197 29.3779 46.2326L28.4227 45.2773C30.4902 43.0266 30.9613 39.742 29.5873 36.9939ZM36.4574 62.9303C38.1324 59.3316 40.7234 55.8246 44.3221 52.2652C46.2064 50.407 47.2402 47.9207 47.2402 45.2773V41.3516C47.2402 40.2654 46.3635 39.3887 45.2773 39.3887H41.8096C39.8467 39.3887 38.0932 38.3025 37.2164 36.549C35.6723 33.4607 32.5578 31.5371 29.1031 31.5371H26.8523L26.2504 30.3463C25.1904 28.2264 26.1457 25.6615 28.4357 24.4838C30.307 23.5154 31.524 21.4217 31.524 19.1186V17.7969C31.524 16.7107 32.4008 15.834 33.4869 15.834H35.8555C39.899 15.834 42.7256 11.8559 41.4301 8.06094L40.3178 4.72402C44.7146 5.7709 48.7451 7.79922 52.1475 10.5734L51.5586 12.3662C51.467 12.6541 51.2969 12.9158 51.0875 13.1383L48.9676 15.2582C47.8553 16.3705 47.2402 17.8492 47.2402 19.4195V21.7227C47.2402 24.968 49.8836 27.6113 53.1289 27.6113C54.215 27.6113 55.0918 28.4881 55.0918 29.5742V32.5709C55.0918 32.8719 55.0264 33.1729 54.8824 33.4477L54.215 34.7824C53.299 36.6275 53.3906 38.7605 54.4768 40.5141C55.5629 42.2676 57.4342 43.3014 59.4887 43.3014H61.3992C57.6566 53.9141 48.0254 61.7787 36.4574 62.9303ZM63.0742 33.5C63.0742 35.5152 62.8648 37.4912 62.4854 39.3887H59.4756C58.4941 39.3887 57.9838 38.7344 57.8006 38.4596C57.6174 38.1848 57.2771 37.4389 57.709 36.549L58.3764 35.2143C58.782 34.4029 59.0045 33.4869 59.0045 32.584V29.5742C59.0045 26.3289 56.3611 23.6855 53.1158 23.6855C52.0297 23.6855 51.1529 22.8088 51.1529 21.7227V19.4195C51.1529 18.8961 51.3623 18.3988 51.7287 18.0324L53.8486 15.9125C54.4898 15.2713 54.9871 14.473 55.275 13.6094L55.3012 13.5439C60.1299 18.8045 63.0742 25.8186 63.0742 33.5ZM33.5 3.92578C34.3244 3.92578 35.1488 3.96504 35.9602 4.03047L37.7268 9.31719C38.1586 10.5865 37.2164 11.9082 35.8686 11.9082H33.5C30.2547 11.9082 27.6113 14.5516 27.6113 17.7969V19.1186C27.6113 19.943 27.2318 20.702 26.6561 20.9898C23.5939 22.5602 21.8535 25.5568 21.9059 28.6451L17.823 25.9232C16.9986 25.3736 16.6977 24.3006 17.1426 23.4893C18.0586 21.8143 18.1502 19.8645 17.3912 18.124C16.6322 16.3836 15.1404 15.1143 13.2822 14.6562L11.1754 14.1328C16.593 7.87773 24.5885 3.92578 33.5 3.92578Z" fill="#37D79D"/>
</svg>
