<svg width="55" height="59" viewBox="0 0 55 59" fill="none" xmlns="http://www.w3.org/2000/svg">
<path fill-rule="evenodd" clip-rule="evenodd" d="M25.407 33.4231C25.4046 33.3814 25.4034 33.3394 25.4034 33.297V2.14823C25.4034 0.962408 26.3636 0 27.5516 0C28.7396 0 29.6998 0.962408 29.6998 2.14823V33.2034L43.1263 22.5555C44.0758 21.8402 45.4228 22.0357 46.1339 22.9852C46.8471 23.9347 46.6537 25.2816 45.7042 25.9927L28.842 39.3121C28.4618 39.5978 28.0064 39.7417 27.5531 39.7417C27.1213 39.7417 26.6895 39.6107 26.3179 39.3508L8.4331 26.4997C7.4621 25.8165 7.22794 24.476 7.91108 23.5072C8.59421 22.5362 9.93256 22.302 10.9036 22.9852L25.407 33.4231ZM4.29646 51.5567V53.7049H50.4815V51.5567C50.4815 50.3751 51.4482 49.4084 52.6297 49.4084C53.8112 49.4084 54.7779 50.3751 54.7779 51.5567V55.7887C54.7782 55.7976 54.7784 55.8066 54.7786 55.8156C54.7788 55.8281 54.7789 55.8406 54.7789 55.8532C54.7789 57.0347 53.8122 58.0014 52.6307 58.0014H2.14832L2.14823 58.0014C1.85285 58.0014 1.57089 57.9409 1.31411 57.8318C0.543771 57.5046 0 56.7393 0 55.8531V51.5567C0 50.3751 0.966704 49.4084 2.14823 49.4084C3.32976 49.4084 4.29646 50.3751 4.29646 51.5567Z" fill="#1B57C4"/>
</svg>
