<?xml version="1.0" standalone="no"?>
<!DOCTYPE svg PUBLIC "-//W3C//DTD SVG 20010904//EN"
 "http://www.w3.org/TR/2001/REC-SVG-20010904/DTD/svg10.dtd">
<svg version="1.0" xmlns="http://www.w3.org/2000/svg"
 width="512.000000pt" height="512.000000pt" viewBox="0 0 512.000000 512.000000"
 preserveAspectRatio="xMidYMid meet">

<g transform="translate(0.000000,512.000000) scale(0.100000,-0.100000)"
fill="#FFCE00" stroke="none">
<path d="M2315 5109 c-801 -83 -1512 -526 -1933 -1204 -597 -963 -483 -2224
278 -3057 423 -463 952 -740 1585 -830 118 -17 511 -16 635 0 749 103 1395
505 1812 1127 209 312 353 697 410 1100 17 118 17 512 0 630 -43 302 -119 553
-246 810 -379 769 -1088 1285 -1941 1411 -123 18 -478 26 -600 13z m338 -933
c22 -11 50 -39 63 -62 l24 -41 0 -711 0 -712 433 -345 c328 -262 438 -356 457
-388 50 -87 19 -201 -70 -248 -42 -23 -120 -25 -163 -4 -45 22 -967 764 -991
798 -21 28 -21 40 -24 819 l-2 790 22 39 c35 63 115 102 183 91 17 -2 47 -14
68 -26z"/>
</g>
</svg>
