<?xml version="1.0" standalone="no"?>
<!DOCTYPE svg PUBLIC "-//W3C//DTD SVG 20010904//EN"
 "http://www.w3.org/TR/2001/REC-SVG-20010904/DTD/svg10.dtd">
<svg version="1.0" xmlns="http://www.w3.org/2000/svg"
 width="512.000000pt" height="512.000000pt" viewBox="0 0 512.000000 512.000000"
 preserveAspectRatio="xMidYMid meet">

<g transform="translate(0.000000,512.000000) scale(0.100000,-0.100000)"
fill="#FFCE00" stroke="none">
<path d="M2420 5114 c-252 -32 -485 -120 -685 -259 -99 -69 -270 -244 -342
-350 -129 -191 -219 -423 -239 -617 -6 -59 -11 -71 -44 -107 -21 -22 -49 -62
-61 -88 l-24 -48 0 -445 c0 -443 0 -445 23 -491 96 -195 351 -232 491 -72 l40
45 18 -43 c103 -262 311 -493 548 -610 l84 -42 51 57 c37 39 74 67 128 93 l76
38 345 5 c385 6 384 6 462 78 71 64 194 266 238 393 l11 33 46 -49 45 -50 -6
-106 c-3 -58 -12 -128 -20 -155 -49 -165 -188 -306 -356 -360 -45 -14 -106
-18 -385 -22 -317 -4 -333 -5 -370 -26 -72 -40 -104 -139 -70 -219 17 -43 78
-95 119 -102 18 -4 186 -5 372 -3 336 4 341 4 428 31 227 70 409 213 520 408
81 144 117 285 117 464 l0 101 34 31 c18 18 44 54 57 80 l24 48 0 445 0 445
-24 48 c-12 26 -40 66 -61 88 -33 36 -38 48 -44 107 -20 194 -110 426 -239
617 -72 106 -243 281 -342 349 -164 115 -352 196 -545 237 -93 19 -341 33
-420 23z m403 -383 c287 -76 536 -272 677 -534 47 -87 95 -227 110 -320 l11
-69 -36 -39 c-19 -21 -35 -44 -35 -49 0 -28 -20 -2 -49 65 -69 157 -208 336
-345 444 -131 103 -294 176 -449 201 -97 16 -288 8 -377 -16 -292 -77 -553
-303 -698 -604 -52 -108 -53 -110 -60 -91 -2 8 -20 31 -39 52 l-34 37 11 69
c70 441 441 804 895 876 17 3 100 4 185 2 116 -3 175 -9 233 -24z"/>
<path d="M1550 1988 c-411 -120 -696 -310 -929 -618 -225 -297 -332 -619 -335
-1005 -1 -159 0 -173 22 -217 13 -27 42 -63 64 -82 83 -71 -91 -66 2188 -66
2279 0 2105 -5 2188 66 22 19 51 55 64 82 21 44 23 59 22 212 0 184 -11 272
-55 437 -102 391 -347 732 -693 963 l-79 53 -35 -44 c-118 -146 -300 -278
-477 -344 -158 -60 -211 -67 -580 -72 -228 -3 -360 -1 -400 6 -123 23 -229 98
-289 203 l-34 61 -103 41 c-167 67 -342 181 -449 290 -24 25 -47 46 -50 45 -3
-1 -21 -6 -40 -11z"/>
</g>
</svg>
